<svg xmlns="http://www.w3.org/2000/svg"><symbol id="space-domes" viewBox="0 0 256 256"><path d="M129.1 0l110.8 64v128l-110.8 64-110.9-64V64L129.1 0z"/><path fill="#fff" d="M68.3 175.3a2 2 0 0 1-2.1-2.1v-25.4H38.5a2.3 2.3 0 0 1-2.1-2.1 2.2 2.2 0 0 1 2.1-2.1h15.8v-13.7a1.9 1.9 0 0 1 2.1-2.1h8.2a66.6 66.6 0 0 1 64.3-51.1c.2-.2.4-.2.8 0 31.1.2 57 22.1 63.9 51.1h8.2a1.9 1.9 0 0 1 2.1 2.1v13.7h15.8a2.2 2.2 0 0 1 2.1 2.1 2.3 2.3 0 0 1-2.1 2.1h-27.8v25.4a1.9 1.9 0 0 1-2.1 2.1zM58.5 132v11.6h141.2V132zm66.4-50.9C98 82.8 75.5 102.3 69 127.8h22.5zm-54.5 66.7v23.3H127v-23.3zM127 85.3l-30.3 42.5H127zm4.2-4.4v46.9h58a62.4 62.4 0 0 0-58-46.9zm0 66.9v23.3h9.5v-23.3zm13.7 0v23.3h42.8v-23.3z"/></symbol><symbol id="mecha-stilts" viewBox="0 0 256 256"><path d="M128 .5l110.5 63.8v127.6L128 255.7 17.5 191.9V64.3L128 .5z"/><path fill="#fff" d="M63.9 175.2a2.2 2.2 0 0 1-2.1-2.1 2.3 2.3 0 0 1 2.1-2.1h10.5v-13.2H63.9a1.9 1.9 0 0 1-2.1-2v-41.3a1.9 1.9 0 0 1 2.1-2.1h13.8C78.8 82.6 101 66.3 128 66.3s49.2 16.3 50.3 46.1h13.8a1.9 1.9 0 0 1 2.1 2.1v41.3a1.9 1.9 0 0 1-2.1 2h-10.5V171h10.5a2.3 2.3 0 0 1 2.1 2.1 2.2 2.2 0 0 1-2.1 2.1zm2.1-58.6v37.1h124v-37.1zm12.5 41.2V171H92v-13.2zm3.4-45.4h92.2c-1-27.1-21.6-41.9-46.1-41.9s-45.1 14.8-46.1 41.9zm14.2 45.4V171h21v-13.2zm25.2 0V171h13.4v-13.2zm56.8-14.2h-51.2a2.1 2.1 0 0 1 0-4.2h51.2a2.1 2.1 0 0 1 0 4.2zm-39.2 14.2V171h20.9v-13.2zm25.1 0V171h13.5v-13.2z"/></symbol><symbol id="space-bubbles" viewBox="0 0 256 256"><path d="M127.8 0l110.6 63.9v127.8l-110.6 63.9-110.7-63.9V63.9L127.8 0z"/><path fill="#fff" d="M65.2 179.6l-4.8-6.9a2.3 2.3 0 0 1 .2-2.5L78 149.6h-8.6a2 2 0 0 1-2.1-2.1v-15.1a2.1 2.1 0 0 1 2.1-2.1h12.2a57.1 57.1 0 0 1-2.3-15.9A49.8 49.8 0 0 1 129 64.8c27.1 0 49.6 22.5 49.6 49.6a50.7 50.7 0 0 1-2.4 15.9h12.2a2 2 0 0 1 2.1 2.1v15.1a1.9 1.9 0 0 1-2.1 2.1h-10.7l17.2 20.6a2.1 2.1 0 0 1 0 2.5l-4.8 6.9a2.2 2.2 0 0 1-2.7.7l-10.1-5.3H78l-10.1 5.3a2.2 2.2 0 0 1-2.7-.7zm31.9-30H83.3l-18.5 21.9 2.9 4.1 35.5-18.6zm-25.6-15.1v10.9h114.8v-10.9zm14.5-4.2h85.8a50 50 0 0 0 2.6-15.9 45.5 45.5 0 0 0-90.9 0c0 5.4.4 11.1 2.5 15.9zm20.1 30l-19.9 10.5h28.5zm-3.5-10.7l17.6 21.2h15.1l17.6-21.2zm46.8 10.7l-8.6 10.5h28.5zm22.9-10.7h-13.9l-6.3 7.4 35.7 18.6 2.9-3.9z"/></symbol></svg>